<svg width="1138" height="1138" viewBox="0 0 1138 1138" fill="none" xmlns="http://www.w3.org/2000/svg">
<rect x="80" y="69" width="1000" height="1000" rx="290" fill="#51CB5D"/>
<path d="M227.92 442.167C239.293 416.501 251.249 391.272 266.849 367.647C283.763 341.689 304.175 318.94 327.066 298.086C342.958 283.648 360.163 270.961 378.243 259.586C391.948 250.982 406.528 243.836 421.254 237.128C432.918 231.732 445.02 227.649 457.267 223.566C480.013 215.982 503.487 211.607 527.253 208.253C539.354 206.503 551.31 206.503 563.412 206.212C592.281 205.628 621.004 208.545 649.289 214.961C661.245 217.732 672.909 221.378 684.428 225.024C713.588 234.357 740.562 247.919 766.369 264.398C779.345 272.711 791.447 281.898 803.257 291.523C814.921 301.002 825.419 312.085 835.917 323.023C847.435 335.127 857.787 348.252 867.264 361.96C889.134 393.751 906.048 427.876 916.983 465.063C923.981 488.688 928.355 512.75 930.834 537.25C932 553.145 932.292 569.187 931.709 585.228C929.813 632.332 919.17 677.394 899.341 720.123C866.389 791.289 815.504 846.413 747.56 885.496C708.923 907.662 667.223 921.808 622.899 928.371C594.176 932.6 565.453 933.62 536.73 930.995C491.094 926.766 447.645 914.662 406.674 893.954C403.758 892.496 400.988 892.058 397.78 892.496C342.375 901.683 286.824 910.871 231.419 919.912C227.191 920.641 222.963 921.225 218.735 922.1C215.964 922.537 214.798 922.1 215.381 918.891C218.151 902.412 221.067 885.933 223.692 869.309C225.442 858.517 225.879 847.58 228.358 836.934C232.294 819.58 234.335 802.08 237.543 784.58C240.313 768.976 242.646 753.372 245.271 737.914C245.708 735.289 245.271 733.102 244.104 730.914C232.586 707.727 223.984 683.519 217.131 658.436C213.923 646.769 211.007 635.103 209.695 623.29C206.779 597.478 205.029 571.52 206.925 545.416C208.674 521.5 212.319 498.021 218.443 474.834C221.213 464.334 224.275 453.98 227.191 443.48C227.629 443.042 228.066 442.897 227.92 442.167ZM832.563 426.709C831.105 421.313 827.314 417.084 824.544 412.418C811.276 390.251 794.946 370.272 776.283 352.627C770.597 347.231 764.619 341.981 758.204 337.169C753.247 333.523 748.435 329.002 743.332 325.21C730.064 315.294 715.775 306.981 700.758 299.69C648.123 273.878 592.572 264.544 534.397 271.107C494.301 275.628 456.684 288.169 421.546 308.002C404.195 317.773 388.303 329.294 373.139 342.127C364.975 348.981 357.247 356.418 350.103 364.293C337.564 378.001 325.754 392.293 316.276 408.334C315.402 409.501 314.527 410.668 313.652 411.98C299.655 434.876 288.574 459.23 281.138 485.188C272.098 516.687 267.724 548.916 269.474 581.728C270.057 592.957 270.64 604.186 273.119 615.27C274.285 620.374 274.285 625.915 275.743 631.165C275.743 631.749 275.889 632.332 275.889 633.061C276.181 634.374 276.472 635.832 276.91 637.144C277.056 637.728 277.347 638.457 277.493 639.04C278.076 644.436 279.826 649.54 281.43 654.79C287.991 677.832 297.76 699.415 309.57 720.269C310.736 722.164 311.173 724.06 310.59 726.685C308.403 736.893 306.945 747.247 305.341 757.456C301.259 783.268 297.322 808.934 292.948 834.747C290.907 846.996 290.615 846.851 302.863 844.663C319.338 841.746 335.668 838.83 352.144 836.205C367.307 833.872 382.471 831.538 397.488 828.622C406.382 826.872 414.985 825.997 423.587 831.83C434.668 839.267 447.207 844.226 459.746 849.038C485.845 858.955 512.672 865.371 540.521 868.142C574.784 871.35 608.61 869.017 641.853 860.559C669.264 853.559 695.071 842.913 719.42 828.476C736.771 818.268 752.955 806.747 767.827 793.476C778.179 784.289 787.802 774.226 796.987 763.726C816.962 741.268 832.563 716.039 844.227 688.477C853.85 665.582 860.849 641.957 864.64 617.165C866.389 605.207 867.993 593.249 868.722 581.291C870.618 547.458 865.952 514.208 856.037 481.834C851.226 466.084 845.54 450.626 837.52 436.188C837.375 434.876 836.937 433.709 835.771 432.834C835.188 431.522 834.604 430.355 834.021 429.043C833.875 428.751 833.584 428.605 833.438 428.313C833.292 427.73 832.855 427.147 832.563 426.709Z" fill="#FBFCFB"/>
<path d="M227.92 442.167C228.066 442.896 227.628 443.188 227.045 443.334C227.337 442.896 227.628 442.459 227.92 442.167Z" fill="#00B04D"/>
<path d="M275.598 631.165C276.181 631.748 276.327 632.332 275.743 633.061C275.743 632.332 275.743 631.748 275.598 631.165Z" fill="#56B94A"/>
<path d="M276.764 637.146C276.909 637.729 277.201 638.458 277.347 639.041C277.201 638.458 277.055 637.729 276.764 637.146Z" fill="#56B94A"/>
<path d="M833.583 428.168C833.292 427.584 833 427.147 832.708 426.563C832.854 427.147 833.292 427.73 833.583 428.168Z" fill="#00B04D"/>
<path d="M453.185 419.272C459.017 405.855 470.244 403.814 483.221 404.689C491.969 405.272 500.717 404.834 509.465 404.834C539.792 404.834 570.119 404.543 600.446 404.834C621.441 405.126 641.416 409.355 659.35 421.022C667.515 426.272 673.784 433.272 680.054 440.563C691.572 459.084 696.53 479.354 694.926 501.083C693.468 522.083 686.907 541.041 670.723 555.625C667.807 558.249 664.453 560.437 660.662 562.479C664.599 564.958 668.39 567.145 672.181 569.624C693.03 583.77 702.945 604.041 704.111 628.832C704.986 647.061 702.362 664.707 693.905 681.04C681.22 705.248 660.516 718.81 634.564 725.227C623.628 727.998 612.402 728.581 601.321 728.581C558.892 728.581 516.609 728.581 474.181 728.581C461.642 728.581 455.956 725.373 451.727 714.581C450.415 711.373 450.998 708.165 450.998 704.956C451.29 670.394 451.582 635.686 451.873 601.124C452.019 580.27 452.019 559.27 452.019 538.416C452.748 535.791 452.602 533.166 452.165 530.541C452.311 520.187 452.748 509.833 452.748 499.479C452.894 475.855 453.04 452.23 453.331 428.459C453.04 425.397 451.873 422.334 453.185 419.272ZM561.517 672.436C572.452 672.436 583.241 672.436 594.176 672.436C604.237 672.436 614.297 671.415 623.191 665.873C637.48 657.123 644.187 638.019 639.375 620.228C634.855 603.457 621.15 592.957 601.758 592.666C574.056 592.374 546.353 592.666 518.651 592.52C515.735 592.52 515.006 593.541 515.006 596.312C514.86 620.374 514.568 644.436 514.131 668.498C514.131 671.707 515.151 672.582 518.359 672.582C532.793 672.29 547.082 672.436 561.517 672.436ZM562.391 535.791C573.764 535.354 588.636 536.666 603.508 535.062C614.005 533.896 623.045 529.521 628.002 519.896C634.272 507.5 635.147 494.521 629.752 481.688C623.191 466.084 609.34 461.417 593.885 461.125C569.682 460.688 545.478 460.98 521.275 460.834C517.776 460.834 516.755 461.855 516.755 465.209C516.609 487.084 516.464 509.104 515.88 530.979C515.735 535.208 517.338 535.791 520.983 535.791C533.668 535.791 546.353 535.791 562.391 535.791Z" fill="#FBFCFB"/>
<path d="M451.873 530.396C452.311 533.02 452.456 535.645 451.727 538.27C451.436 535.645 451.29 533.02 451.873 530.396Z" fill="#56B94A"/>
<path d="M683.845 437.062C683.991 436.916 683.99 436.771 684.136 436.771C684.282 436.916 684.574 437.062 684.719 437.208C684.719 437.208 684.574 437.354 684.428 437.5C684.136 437.5 683.991 437.208 683.845 437.062Z" fill="#00B04D"/>
</svg>
